<mxfile host="www.draw.io" modified="2020-01-19T09:37:40.079Z" agent="Mozilla/5.0 (Windows NT 10.0; Win64; x64) AppleWebKit/537.36 (KHTML, like Gecko) Chrome/79.0.3945.117 Safari/537.36" etag="T2LDnRd9GPXn9QDlZBNR" version="12.5.5" type="github">
  <diagram id="IJlwkW0IKvStU0IK6DOn" name="Page-1">
    <mxGraphModel dx="1422" dy="745" grid="1" gridSize="10" guides="1" tooltips="1" connect="1" arrows="1" fold="1" page="1" pageScale="1" pageWidth="1169" pageHeight="827" math="0" shadow="0">
      <root>
        <mxCell id="0"/>
        <mxCell id="1" parent="0"/>
        <mxCell id="t6SEZ7RhCC823az2yK95-1" value="Hashing" style="text;html=1;align=center;verticalAlign=middle;resizable=0;points=[];autosize=1;fontSize=30;fontStyle=1" vertex="1" parent="1">
          <mxGeometry x="519" y="120" width="130" height="40" as="geometry"/>
        </mxCell>
        <mxCell id="t6SEZ7RhCC823az2yK95-4" value="H" style="shape=trapezoid;perimeter=trapezoidPerimeter;whiteSpace=wrap;html=1;fontSize=30;verticalAlign=middle;direction=west;" vertex="1" parent="1">
          <mxGeometry x="120" y="290" width="140" height="50" as="geometry"/>
        </mxCell>
        <mxCell id="t6SEZ7RhCC823az2yK95-5" value="M" style="text;html=1;align=center;verticalAlign=middle;resizable=0;points=[];autosize=1;fontSize=30;" vertex="1" parent="1">
          <mxGeometry x="170" y="190" width="40" height="40" as="geometry"/>
        </mxCell>
        <mxCell id="t6SEZ7RhCC823az2yK95-6" value="" style="endArrow=classic;html=1;fontSize=30;entryX=0.5;entryY=1;entryDx=0;entryDy=0;" edge="1" parent="1" target="t6SEZ7RhCC823az2yK95-4">
          <mxGeometry width="50" height="50" relative="1" as="geometry">
            <mxPoint x="190" y="234" as="sourcePoint"/>
            <mxPoint x="170" y="360" as="targetPoint"/>
          </mxGeometry>
        </mxCell>
        <mxCell id="t6SEZ7RhCC823az2yK95-9" value="" style="endArrow=classic;html=1;fontSize=30;entryX=0.5;entryY=1;entryDx=0;entryDy=0;" edge="1" parent="1">
          <mxGeometry width="50" height="50" relative="1" as="geometry">
            <mxPoint x="189.5" y="340" as="sourcePoint"/>
            <mxPoint x="189.5" y="396" as="targetPoint"/>
          </mxGeometry>
        </mxCell>
        <mxCell id="t6SEZ7RhCC823az2yK95-10" value="h" style="text;html=1;align=center;verticalAlign=middle;resizable=0;points=[];autosize=1;fontSize=30;" vertex="1" parent="1">
          <mxGeometry x="175" y="400" width="30" height="40" as="geometry"/>
        </mxCell>
        <mxCell id="t6SEZ7RhCC823az2yK95-11" value="" style="endArrow=none;dashed=1;html=1;fontSize=30;entryX=1.033;entryY=0.975;entryDx=0;entryDy=0;entryPerimeter=0;exitX=-0.01;exitY=0.325;exitDx=0;exitDy=0;exitPerimeter=0;" edge="1" parent="1" source="t6SEZ7RhCC823az2yK95-13" target="t6SEZ7RhCC823az2yK95-10">
          <mxGeometry width="50" height="50" relative="1" as="geometry">
            <mxPoint x="120" y="510" as="sourcePoint"/>
            <mxPoint x="170" y="460" as="targetPoint"/>
          </mxGeometry>
        </mxCell>
        <mxCell id="t6SEZ7RhCC823az2yK95-13" value="Fixed length output despite&lt;br&gt;&amp;nbsp;length of message M" style="text;html=1;align=center;verticalAlign=middle;resizable=0;points=[];autosize=1;fontSize=16;" vertex="1" parent="1">
          <mxGeometry x="290" y="450" width="210" height="40" as="geometry"/>
        </mxCell>
        <mxCell id="t6SEZ7RhCC823az2yK95-14" value="" style="shape=curlyBracket;whiteSpace=wrap;html=1;rounded=1;fontSize=16;" vertex="1" parent="1">
          <mxGeometry x="90" y="200" width="20" height="230" as="geometry"/>
        </mxCell>
        <mxCell id="t6SEZ7RhCC823az2yK95-15" value="h=H(M)" style="text;html=1;align=center;verticalAlign=middle;resizable=0;points=[];autosize=1;fontSize=16;" vertex="1" parent="1">
          <mxGeometry x="10" y="305" width="70" height="20" as="geometry"/>
        </mxCell>
        <mxCell id="t6SEZ7RhCC823az2yK95-18" value="Hash value or&lt;br&gt;message digest" style="whiteSpace=wrap;html=1;shape=partialRectangle;top=0;left=0;bottom=1;right=0;points=[[0,1],[1,1]];strokeColor=#000000;fillColor=none;align=center;verticalAlign=bottom;routingCenterY=0.5;snapToPoint=1;container=1;recursiveResize=0;autosize=1;treeFolding=1;treeMoving=1;fontSize=16;" vertex="1" parent="1">
          <mxGeometry x="260" y="380" width="130" height="40" as="geometry"/>
        </mxCell>
        <mxCell id="t6SEZ7RhCC823az2yK95-19" value="" style="edgeStyle=entityRelationEdgeStyle;startArrow=none;endArrow=none;segment=10;curved=1;fontSize=16;exitX=1;exitY=0.575;exitDx=0;exitDy=0;exitPerimeter=0;" edge="1" target="t6SEZ7RhCC823az2yK95-18" parent="1" source="t6SEZ7RhCC823az2yK95-10">
          <mxGeometry relative="1" as="geometry">
            <mxPoint x="-30" y="550" as="sourcePoint"/>
          </mxGeometry>
        </mxCell>
        <mxCell id="t6SEZ7RhCC823az2yK95-20" value="Hash function" style="whiteSpace=wrap;html=1;shape=partialRectangle;top=0;left=0;bottom=1;right=0;points=[[0,1],[1,1]];strokeColor=#000000;fillColor=none;align=center;verticalAlign=bottom;routingCenterY=0.5;snapToPoint=1;container=1;recursiveResize=0;autosize=1;treeFolding=1;treeMoving=1;fontSize=16;" vertex="1" parent="1">
          <mxGeometry x="290" y="290" width="115" height="20" as="geometry"/>
        </mxCell>
        <mxCell id="t6SEZ7RhCC823az2yK95-21" value="" style="edgeStyle=entityRelationEdgeStyle;startArrow=none;endArrow=none;segment=10;curved=1;fontSize=16;exitX=0;exitY=0.5;exitDx=0;exitDy=0;" edge="1" target="t6SEZ7RhCC823az2yK95-20" parent="1" source="t6SEZ7RhCC823az2yK95-4">
          <mxGeometry relative="1" as="geometry">
            <mxPoint x="-30" y="550" as="sourcePoint"/>
          </mxGeometry>
        </mxCell>
        <mxCell id="t6SEZ7RhCC823az2yK95-22" value="Message" style="whiteSpace=wrap;html=1;shape=partialRectangle;top=0;left=0;bottom=1;right=0;points=[[0,1],[1,1]];strokeColor=#000000;fillColor=none;align=center;verticalAlign=bottom;routingCenterY=0.5;snapToPoint=1;container=1;recursiveResize=0;autosize=1;treeFolding=1;treeMoving=1;fontSize=16;" vertex="1" parent="1">
          <mxGeometry x="280" y="190" width="70" height="20" as="geometry"/>
        </mxCell>
        <mxCell id="t6SEZ7RhCC823az2yK95-23" value="" style="edgeStyle=entityRelationEdgeStyle;startArrow=none;endArrow=none;segment=10;curved=1;fontSize=16;exitX=1.25;exitY=0.75;exitDx=0;exitDy=0;exitPerimeter=0;" edge="1" target="t6SEZ7RhCC823az2yK95-22" parent="1" source="t6SEZ7RhCC823az2yK95-5">
          <mxGeometry relative="1" as="geometry">
            <mxPoint x="-30" y="550" as="sourcePoint"/>
          </mxGeometry>
        </mxCell>
      </root>
    </mxGraphModel>
  </diagram>
</mxfile>
